<?xml version="1.0" encoding="UTF-8" standalone="no"?>
<!-- Created with Inkscape (http://www.inkscape.org/) -->
<svg
   xmlns:dc="http://purl.org/dc/elements/1.1/"
   xmlns:cc="http://web.resource.org/cc/"
   xmlns:rdf="http://www.w3.org/1999/02/22-rdf-syntax-ns#"
   xmlns:svg="http://www.w3.org/2000/svg"
   xmlns="http://www.w3.org/2000/svg"
   xmlns:sodipodi="http://inkscape.sourceforge.net/DTD/sodipodi-0.dtd"
   xmlns:inkscape="http://www.inkscape.org/namespaces/inkscape"
   version="1.0"
   x="0.00000000"
   y="0.00000000"
   width="494.57000px"
   height="300.00000px"
   viewBox="-3246 0 6492 3938"
   id="svg2321"
   xml:space="preserve"
   sodipodi:version="0.32"
   inkscape:version="0.42.2"
   sodipodi:docname="Vepsa lipp.svg"
   sodipodi:docbase="C:\Documents and Settings\kasutaja\Desktop\vikitrulla"><metadata
   id="metadata2528"><rdf:RDF><cc:Work
       rdf:about=""><dc:format>image/svg+xml</dc:format><dc:type
         rdf:resource="http://purl.org/dc/dcmitype/StillImage" /></cc:Work></rdf:RDF></metadata><sodipodi:namedview
   inkscape:window-height="480"
   inkscape:window-width="640"
   inkscape:pageshadow="2"
   inkscape:pageopacity="0.0"
   borderopacity="1.0"
   bordercolor="#666666"
   pagecolor="#ffffff"
   id="base" />
    <defs
   id="defs2323">
        <style
   type="text/css"
   id="style2325" />
    
        
        
        
    </defs>
    <g
   id="g2328">
            <path
   d="M -3246.0000,3938.0000 C -3246.0000,3471.0000 -3246.0000,3005.0000 -3246.0000,2540.0000 C -2732.0000,2540.0000 -2218.0000,2540.0000 -1704.0000,2540.0000 C -1704.0000,3005.0000 -1704.0000,3471.0000 -1704.0000,3938.0000 C -2218.0000,3938.0000 -2732.0000,3938.0000 -3246.0000,3938.0000 z "
   style="fill:#01c100;fill-opacity:1.0000000"
   id="21852584" />
            <path
   d="M -571.00000,3938.0000 C -571.00000,3471.0000 -571.00000,3005.0000 -571.00000,2540.0000 C 700.00000,2540.0000 1973.0000,2540.0000 3246.0000,2540.0000 C 3246.0000,3005.0000 3246.0000,3471.0000 3246.0000,3938.0000 C 1973.0000,3938.0000 700.00000,3938.0000 -571.00000,3938.0000 z "
   style="fill:#01c100;fill-opacity:1.0000000"
   id="21852672" />
            <path
   d="M -3246.0000,1408.0000 C -3246.0000,938.00000 -3246.0000,469.00000 -3246.0000,0.00000000 C -2732.0000,0.00000000 -2218.0000,0.00000000 -1704.0000,0.00000000 C -1704.0000,469.00000 -1704.0000,938.00000 -1704.0000,1408.0000 C -2218.0000,1408.0000 -2732.0000,1408.0000 -3246.0000,1408.0000 z "
   style="fill:#01c100;fill-opacity:1.0000000"
   id="21852760" />
            <path
   d="M -571.00000,0.00000000 C 700.00000,0.00000000 1973.0000,0.00000000 3246.0000,0.00000000 C 3246.0000,469.00000 3246.0000,938.00000 3246.0000,1408.0000 C 1973.0000,1408.0000 700.00000,1408.0000 -571.00000,1408.0000 C -571.00000,938.00000 -571.00000,469.00000 -571.00000,0.00000000 z "
   style="fill:#01c100;fill-opacity:1.0000000"
   id="21852848" />
        </g><path
   d="M -1466.0000,3938.0000 C -1466.0000,3392.0000 -1466.0000,2846.0000 -1466.0000,2302.0000 C -2060.0000,2302.0000 -2653.0000,2302.0000 -3246.0000,2302.0000 C -3246.0000,2082.0000 -3246.0000,1862.0000 -3246.0000,1644.0000 C -2653.0000,1644.0000 -2060.0000,1644.0000 -1466.0000,1644.0000 C -1466.0000,1096.0000 -1466.0000,548.00000 -1466.0000,0.00000000 C -1247.0000,0.00000000 -1028.0000,0.00000000 -808.00000,0.00000000 C -808.00000,548.00000 -808.00000,1096.0000 -808.00000,1644.0000 C 542.00000,1644.0000 1894.0000,1644.0000 3246.0000,1644.0000 C 3246.0000,1862.0000 3246.0000,2082.0000 3246.0000,2302.0000 C 1894.0000,2302.0000 542.00000,2302.0000 -808.00000,2302.0000 C -808.00000,2846.0000 -808.00000,3392.0000 -808.00000,3938.0000 C -1028.0000,3938.0000 -1247.0000,3938.0000 -1466.0000,3938.0000 z "
   style="fill:#1010e8;fill-opacity:1.0000000"
   id="21852936" /><g
   id="g2335">
            <path
   d="M -1704.0000,3938.0000 C -1704.0000,3471.0000 -1704.0000,3005.0000 -1704.0000,2540.0000 C -2218.0000,2540.0000 -2732.0000,2540.0000 -3246.0000,2540.0000 C -3246.0000,2459.0000 -3246.0000,2381.0000 -3246.0000,2302.0000 C -2653.0000,2302.0000 -2060.0000,2302.0000 -1466.0000,2302.0000 C -1466.0000,2846.0000 -1466.0000,3392.0000 -1466.0000,3938.0000 C -1546.0000,3938.0000 -1625.0000,3938.0000 -1704.0000,3938.0000 z "
   style="fill:#fafa00;fill-opacity:1.0000000"
   id="21853024" />
            <path
   d="M -808.00000,3938.0000 C -808.00000,3392.0000 -808.00000,2846.0000 -808.00000,2302.0000 C 542.00000,2302.0000 1894.0000,2302.0000 3246.0000,2302.0000 C 3246.0000,2381.0000 3246.0000,2459.0000 3246.0000,2540.0000 C 1973.0000,2540.0000 700.00000,2540.0000 -571.00000,2540.0000 C -571.00000,3005.0000 -571.00000,3471.0000 -571.00000,3938.0000 C -650.00000,3938.0000 -729.00000,3938.0000 -808.00000,3938.0000 z "
   style="fill:#fafa00;fill-opacity:1.0000000"
   id="21853112" />
            <path
   d="M -3246.0000,1644.0000 C -3246.0000,1565.0000 -3246.0000,1486.0000 -3246.0000,1408.0000 C -2732.0000,1408.0000 -2218.0000,1408.0000 -1704.0000,1408.0000 C -1704.0000,938.00000 -1704.0000,469.00000 -1704.0000,0.00000000 C -1625.0000,0.00000000 -1546.0000,0.00000000 -1466.0000,0.00000000 C -1466.0000,548.00000 -1466.0000,1096.0000 -1466.0000,1644.0000 C -2060.0000,1644.0000 -2653.0000,1644.0000 -3246.0000,1644.0000 z "
   style="fill:#fafa00;fill-opacity:1.0000000"
   id="21853200" />
            <path
   d="M -808.00000,0.00000000 C -729.00000,0.00000000 -650.00000,0.00000000 -571.00000,0.00000000 C -571.00000,469.00000 -571.00000,938.00000 -571.00000,1408.0000 C 700.00000,1408.0000 1973.0000,1408.0000 3246.0000,1408.0000 C 3246.0000,1486.0000 3246.0000,1565.0000 3246.0000,1644.0000 C 1894.0000,1644.0000 542.00000,1644.0000 -808.00000,1644.0000 C -808.00000,1096.0000 -808.00000,548.00000 -808.00000,0.00000000 z "
   style="fill:#fafa00;fill-opacity:1.0000000"
   id="21853288" />
        </g>
</svg>